<?xml version="1.0" encoding="utf-8"?>
<!-- Generator: Adobe Illustrator 18.0.0, SVG Export Plug-In . SVG Version: 6.00 Build 0)  -->
<!DOCTYPE svg PUBLIC "-//W3C//DTD SVG 1.1//EN" "http://www.w3.org/Graphics/SVG/1.1/DTD/svg11.dtd">
<svg preserveAspectRatio="xMidYMid slice" width="51px" height="68px" version="1.1" xmlns="http://www.w3.org/2000/svg" xmlns:xlink="http://www.w3.org/1999/xlink" x="0px" y="0px"
	 viewBox="0 0 505.6 669" enable-background="new 0 0 505.6 669" xml:space="preserve">
<g id="Layer_1">
</g>
<g id="Oregon">
</g>
<g id="Washington">
	<g opacity="0.4">
		<path fill="#DFDBED" stroke="#231E5F" stroke-width="6" d="M502.6,363.1l-0.5-1.8l-2.1-4.2l-1.1-3.5l-0.8-1.7l-0.8-0.9l-0.9-0.8
			l-2.5-0.5l-3.5-2.2l-1.2-1.5l-0.6-0.5l-4.3-1l-0.6-1.1L483,342l-3.6-3.8l-1.8-4.9l-0.5-2.7l-0.1-0.4c-5.5,0-11,0-16.4,0
			c-12.8,0-25.6,0-38.4,0.1c-12.4,0-24.8,0-37.2,0c-12.2,0-24.4,0.1-36.5,0.1l-2.6,3l-3,1.4l-15,0.2c-2.8,0.5-5.6,1.1-8.4,1.6
			l-4.2-0.2l-1.6,0.2l-1,0.6l-1.8,2.2l-2.5,2.1l-16.4,2.9l-8.8,3.7l-2.8,0.5l-1.1,0.7l-1.9,1.9l-1.6,1.1l-1.7,0.8l-0.9,0.1l-1.8-0.4
			l-0.9,0l-0.6,0.2l-2.4,1.4l-1.4,0.6l-0.7,0.1l-3.1-0.6l-0.5,0.1l-1.5,0.7l-0.7,0.1l-9.1-1.8l-0.6,0.2l-1.6,1.1l-0.4,0.5l-0.2,0.6
			l-2.8,1.2l-4.3,0.9l-0.4,0.2l-2.7,2.1l-0.3,0.1l-0.8,0.1l-2.6,0.8l-2.6-0.3l-0.9-0.4l-0.7-0.1l-2,0.1l-0.3,0l-0.7-0.2l-1.3-0.1
			l-0.3,0l-5.4,2.5l-1.3,0.2l-1.1-0.8l-0.8-1.8l-0.5-1.5l-0.6-1.3l-1.2-1l-2.9-1l-18.1-1.8l-8.9,1.7l-4.5-1l-1.7,0.3l-2.5,1.4
			l-4.2,3.5l-2.4,1.5l-10.8,4.2l-4.5,1.4l-1,0.7l-1.2,0.3l-4.9-1.8l-5.1-0.1l-1.8-1l-3.1-0.8l-2-1l-0.9,0l-2.4,0.7l-4.7-1l-1.5-0.9
			l-1.4-1.1l-1-1.2l-0.6-1.4l-0.4-1.9l-0.3-3.4l0.1-1l0.3-1.7l0.1-0.9l-0.2-0.9l-1.4-2.4l0-2l0.3-1.8l0.1-1.6l-1.1-3l-0.5-3.9
			l-0.4-1.4l-0.8-1.1l-1-0.8l-0.8-1l-0.7-3.3l-0.8-1.9l-1.1-1.8L112,321l-1.5-1.3l-1.9-1.2l-2-0.9l-1.9-0.3l-0.8-0.5l-2.1-1.6
			l-0.8-0.8l-1.2-0.3l-3.8,0.7l-1,0.8l-1.7,2.3l-0.8,0.5h-3.5l-6.4-1.2l-1-0.9l-0.4-0.7l-3.2-4.7l-0.7-0.6l-0.7-0.2l-1.2,0.2
			l-0.9,0.4l-1.6,1.2l-1,0.3l-1.9-0.1l-0.8,0.4l0.4,0.2l0.9,0.9l-0.9,0.5l-5.5,1.2l-0.9,0.1l-1-0.5l-1.1-1.8l-0.7-0.7l-0.8,0.4
			l-1,0.7l-2.3,0.2l-1.1,0.5l0.5,0.6l0.5,0.4l0.6,0.2l0.7,0.1l0.6,0.3l1.2,1.6l0.5,0.5v0.5l-0.8,0.2l-0.4,0.7l-0.1,1l0.1,1.2l-0.8-1
			l0-1.2l0.1-1.3l-0.4-1.3l-0.8-0.4l-2.1,0.2l-1.1-0.7l-1.1-1.3l-1.6-1.4l-1.7-1l-1.6-0.2l0.1-0.6l0.1-0.3l0.2-0.3l-1.1,0.4l0.3,1.9
			l2.9,6.9l0.8,3.3l0.3,1.9l0.1,2l-0.1,2l-0.3,1.9l-0.3,1.1l-0.3,0.5l-1.5,1.6l-0.6,0.3l-0.6,0.4l-0.5,0.9l1.3,1.7l0.6,1.8l0.2,2.1
			l-0.2,5l-0.4,1.7l-1.4,3.1l1.5,0.9l1.2,1.9l0.6,2.4l-0.1,2.7l0.4-0.9l0.4-0.6l0.5-0.9l0.7-0.2l0.9,0.6l0.3-0.3l0.3-0.1l0.3-0.1
			l0.4-0.1l-0.5,1l-0.7,0.5l-0.7,0.3l-0.6,0.5l-0.4,0.8l-1.3,1.4c-0.3,1.6-0.7,3.2-1,4.9l-0.1,1.1l0.6,0.6l1.4,1.2l1.8-0.5l-0.3,1.9
			l0.2,1.6l0.7,1l1.4,0.2v0.6l-1,0.8l-0.3,0.8l-0.4,0.3l-1.1-0.7l-1-0.3l-0.8-1.1l-0.4-2.2l-0.2-2.7l-0.3,0.8l-0.3,2.8l-0.7,1.9
			l0,3.7l1,1.6l2.2,1.3l-0.8,1.1l-0.7,1.4l-1,0.9l0.3-2.6l0.1-0.4l-0.3-0.1l-0.2,0.5l-0.2,0.6l-0.2,0.9c-0.1,0.9-0.2,1.7-0.3,2.6
			l-0.5,1.1l-1.3,0.4v0.6l0.9,0.1l0.9,0.4l0.6,0.6l0.1,2.1l0.1,2.4l0,0.5l-0.2,0.5l-0.3,0.2l-0.3,0.2l-0.2,0.2
			c-0.1,1.5-0.2,3-0.3,4.4l0.1,0.9l0.1,2l0.1,1.3l-0.4,2.1l-0.5,2.1l-1.2,1.9l-0.6,1.6l-0.1,0.8l0.7,0.9c-0.2,2.2-0.4,4.3-0.6,6.5
			l-0.6,2l0.3,0.4l0.1,0.5l0,1.5l-0.4,0.6l-0.5,0.4c-0.1,0.7-0.1,1.5-0.2,2.2l-0.7,1.7l-0.8,1.5l-0.4,1.4l0.1,5.2l0.2,1.5l0.1,1.7
			l-0.4,3.9l0.1,1.1l0.4,1.1l-0.1,0.9l0,0.8l0.6,1l0.7,0.1l0.7-0.4l0.6-0.1l0.5,1l-0.2,1.4l-1.2-0.4l-1.3-0.8l-0.6,0.1l-1.7,10.9
			l-0.1,2.1l0.4,1.5l1.1,0.7l1.1-0.4l1,0.1l0.7,2.2l-2.2-1l-1.1,0l-0.4,1.3l-0.1,1.7l-1.1,5l-0.2,0.4l-0.5,0.8l-0.2,0.5l0,0.5
			l0.3,0.8l0.1,0.5l-0.4,3.1l0.2,5.3l-1,7.2l-0.4,2.7l-0.1,0.6l0,0.7l0.1,1.1l0.7,2.3l0.1,0.5l-0.3,0.9l-0.8,0.5l-0.2,0.7v3.5
			l-0.2,1.4c-0.6,4.5-1.2,9.1-1.8,13.6l-1,3.5v1.8l0.6,1.3l0.6-1l0.6-2l0.6-1.5l1.1-0.3l1.5,0.6l1.4,1l0.8,0.8v0.5h-2.7l-0.5-0.3
			l-0.1-0.6l0-0.6l0-0.3l-0.9,0.2l-0.5,0.8l-0.3,1.1l-0.4,1.2l-0.7,0.9l-1.5,1.5l-0.7,1.1l-0.4,1.2l-0.5,3.9l-0.6,1.8l-0.2,1
			L28,550.1l-1,2.1l0.5,0.6l1.3-2.3l2-2.6l2.2-2.3l2-1.3l-0.7,1.8l-0.1,0.8l0.2,0.4l0.4,0.5l0.4,0.6l0.5,2l2.2,3.1l-0.9,0.4
			l-1.2-0.2l-1.2-0.6l-0.8-0.7l-0.4-1.3v-1.1l-0.1-0.7l-0.9-0.3l-1.4,0.9l-1.4,2l-0.7,1.9l0.8,0.8l-0.3,0.6l-0.3,0.4l-0.4,0.2
			l-0.7,0l0.3,0.9l0.1,1l0,2.1h-0.4l-0.9-0.9l-0.3-4.5h-0.7l-0.6,0.5l-1.2,0.7l-0.6,0.8l-0.4,1l-0.1,0.6l0.1,1.2l-0.1,3.6l-2.3,11.2
			l-0.4,3.6l-0.1,1.7l-0.3,1.7l-0.7,1.3l-0.8,1.2l-0.7,1.2c-1.7,4.1-3.3,8.3-5,12.4l-1.2,0.9l1.1,0.7l0.6,0.8l0.4,1l1,4.5l0.6,1
			l0.8-0.8l0.6,1.1l0.9,2.5l0.8,1.3l0.8,0.7l0.9,0.5l0.7,0.7l0.3,1.4l0.1,2.6l0.8,3.9c-0.2,1.3-0.5,2.6-0.7,3.9l-1.4,3.1l-0.2,1.2
			l0.1,0.9l0.5,2.4l0.2,2.7l0,1.3l-0.1,1l-0.4,1.3l-0.3,0.6l-0.6,0.6l0.4,0.6l0.6,0.6l0.3,0.2l0.6,3l0.2,1.8l-0.1,0.8l1,0.8l0.8,1.8
			l1.4,8.6l0.4,0.8l0.8,0.5l2.7,3.4l3.6,2.6l0.8,1.8h435.9c0-11.9,0-23.8-0.1-35.7c0-12.7,0-25.4-0.1-38.1c0-12.1,0-24.2-0.1-36.2
			c0-12.3,0-24.7-0.1-37l-0.2-1.1v-0.6l-0.5-1.9l0.9-1.4l1.3-1.1l0.7-1.1l0.7-1.9l0.2-2l0.8-2.7l0.4-3.4l0.3-0.9l0.3-0.6l0.2-0.7
			l0.1-1l-0.4-1.8l-1.7-2.9l0-1.4l0.6-0.7l0.8-0.1l0.8,0l0.7-0.3l0.5-0.8l0.2-1l0.1-1l0-1l0.2-0.5l0.4-0.5l0.2-0.6l-0.3-0.8
			l-1.2-1.2l-1-0.8l-1.3-0.7l-0.3-0.5l-0.5-1.1l-0.1-0.9l0-0.9l-0.2-0.8l-0.8-0.3l-1.4,0.3l-1.1,0.5l-1.1,0.3l-1.2-0.4l-0.5-0.6
			l-0.4-0.8l-0.4-0.7l-0.8-0.2l-0.8,0.3l-0.6,0.6l-0.5,0.7l-0.6,0.7l-2.3-1.7l-1-1.1l-0.4-1.6l0.1-0.9l0.3-1.1l0.1-0.9l-0.2-1.1
			l-0.8-1.7l-0.3-1l0.2-1.9l0.7-1.7l0.5-1.5l-0.6-2.3l0.4-0.6l0.6-0.5l0.3-0.5l0.2-1.1l0.5-0.4l0.7-0.2l0.7-0.3l0.8-1l0.8-1.4
			l0.6-1.6l0.5-3.3l0.7-1.8l1.5-3l1.7-4.3l0.6-1.2l1.1-1.4l3.7-2.4l1.1-1l0.9-1l3.2-5.4l1.4-3l0.5-1.6l0.7-4l0.1-1.8l-0.1-0.2
			l-0.3-0.4l-0.3-0.7l-0.1-1l0.2-0.9l0.5-0.9l6.4-9.9l1.2-3.3l1.1-5.3l0.8-1.5l0.6-1.4l0.2-3.6l0.2-1.8l0.8-1.6l2.1-2.5l0.9-2.9
			l2.9-3.7l0.2-0.8l0.3-1.8l1.1-2.9l0.3-0.6l1.8-2.1l0.8-1.3l0.5-1.6L502.6,363.1z"/>
		<polygon fill="#DFDBED" stroke="#231E5F" stroke-width="6" points="122.4,72.7 123.1,74.9 123.6,75.4 124.3,76.1 125.1,76.6 
			125.8,76.8 126.2,77.2 127.7,79.9 129.1,78.9 130.4,78.7 131.4,79.6 131.8,81.7 130.9,86.7 131.2,88 132.3,89.7 132.2,91.2 
			133,93 134.1,94.6 135,95.3 135.5,96 136,96.4 136.8,96.5 137.4,96.1 138.6,94.8 139.3,94.7 140.3,95.5 140.9,97.1 141.3,99.2 
			141.4,101.1 141.8,101.6 142.6,101.4 143.9,100.8 144.2,101 144.2,101.6 144.4,102 144.7,102.1 145,101.8 145.2,101.2 
			145.5,100.8 146.6,98.7 147,98.4 147.2,97.9 146.9,97 146.4,95.6 146,93.5 145.1,92.1 140.3,88.7 139.3,87.6 138.3,86.3 137,85.3 
			136.4,86.3 136.5,88.3 137.3,90.3 136.5,92.4 135.7,93 135.1,91.9 134.6,87.5 134.3,82.5 133.6,78.5 133,76.4 132.1,74.9 
			130.8,74.3 130.1,74.1 128.7,73.2 127.9,73 126,73.6 125.1,73.5 124.3,72.3 127.8,71.6 128.7,70.9 128.9,69.7 129,68.1 
			129.3,67.4 130.2,69.3 130.6,68 131.3,66.4 132.2,65.6 133.3,66.5 134.1,67.6 135.1,68 136,67.8 136.8,66.9 136.9,64.3 
			133.2,61.2 133.1,59.3 132.9,59 132.8,58.8 132.6,58.1 132.1,57.1 131.5,57.4 130.8,58.2 130,58.6 128.4,58.6 127.7,60.6 
			122.7,70.9 		"/>
		<polygon fill="#DFDBED" stroke="#231E5F" stroke-width="6" points="123.6,39.9 123.5,41.1 124.4,43.8 124.9,44.3 125.6,44.3 
			126.1,44.2 126.5,43.9 126.6,42.9 127,42.3 127.3,41.9 127.1,41.5 126.1,40.3 126,39.7 125.6,39 124.8,38.5 124.1,38.9 		"/>
		<polygon fill="#DFDBED" stroke="#231E5F" stroke-width="6" points="124.8,89.1 124.5,88.5 124.4,86.6 124,86 123.4,86 123.3,86.8 
			123.5,88.5 123.9,89.7 124.7,91.4 125.7,92.8 126.9,92.8 127.4,91.3 127.1,89.1 126.6,86.9 125.7,84.7 125.2,84.3 124.6,84.3 
			124,84.7 125,85.9 125.7,87.7 125.6,89 		"/>
		<polygon fill="#DFDBED" stroke="#231E5F" stroke-width="6" points="127.4,36.6 126.2,36.7 125.8,36.9 126.9,37.9 128,38.4 
			127.9,37.6 127.7,36.9 		"/>
		<polygon fill="#DFDBED" stroke="#231E5F" stroke-width="6" points="133.2,129.3 133.6,129.8 134.4,129.6 135.3,129.8 136.6,131.8 
			137.9,132 138.6,131.1 139.1,130.6 138.6,130.4 138.3,130 138.2,129.3 138.1,128.8 137.8,128.4 137.9,127.7 137.2,127 
			137.7,126.8 138,126.4 138.5,125.7 137.9,125.1 137.5,123.8 137.2,120.9 136.9,120.3 136.3,119.6 135.6,119.2 135,119 
			134.4,119.2 134.3,119.9 134.4,120.9 134.1,121.8 133.1,123.2 133,123.8 133.1,125.1 133.4,126.1 133.8,126.8 133.7,127.8 		"/>
		<polygon fill="#DFDBED" stroke="#231E5F" stroke-width="6" points="140.8,149.3 139.9,149.7 139.5,150.6 139.4,151.8 139.7,153 
			140.9,152 142.9,149.9 145.5,148.8 145.9,148.8 144.7,147.9 143.6,147.3 142.6,146.5 141.8,145 141.6,144.1 141.6,142.3 
			141.4,141.4 141,140.6 140.4,140.2 140.2,139.6 140.6,138.3 139.6,138.8 138.5,139.9 137.6,141.3 137.3,142.3 136.8,149.1 
			136.6,149.6 136.2,150.3 136,151.2 136.2,152.1 136.8,152.9 137.2,153.4 137.7,153.4 138.1,153 138.3,152.3 138.5,151.4 
			138.5,149.6 138.8,149.1 139.4,148.7 140.6,148.1 140.1,147.5 141.1,147.3 141.5,148 141.4,148.9 		"/>
		<polygon fill="#DFDBED" stroke="#231E5F" stroke-width="6" points="112.5,24.3 112.3,24.3 112.6,24.8 112.8,25.1 112.7,25.2 
			112.9,25.3 113.3,25.5 113.5,25.4 113.3,25.1 113.4,25.1 113.8,25.5 114.5,25.6 113.7,24.6 113.5,24.8 112.9,24.3 113.4,24 
			114,24 114.7,24.2 114.1,23.6 113.2,23.4 112.5,23.7 112.4,24 112.6,24.1 112.6,24.3 		"/>
		<polygon fill="#DFDBED" stroke="#231E5F" stroke-width="6" points="106,35.7 106,36.6 106.2,37.3 107,38.5 107.8,39.3 108.2,38.6 
			108.4,37.2 108.5,36 108.8,35.5 109.5,35.9 110.5,36.9 110.9,37.7 111.1,38.8 111.6,39.7 112.6,40 114.4,39.9 115.2,39.6 
			116,38.9 113,33.8 113.3,33 113.3,32.5 113.1,32 113,31 113.3,30.1 113.9,29.9 114.5,30.2 114.7,31 114.9,32 115.7,34.5 
			117.2,37.1 117.8,37.9 118.4,38.2 119.2,38 119.4,37.5 119.4,36.8 119.7,36.3 122.3,34.4 122.7,34 123,33.1 116.2,29.1 
			113.9,28.8 112.6,28.8 111.9,29.1 108.9,32.8 108.3,33.1 107.8,33.5 106.3,35.1 		"/>
		<polygon fill="#DFDBED" stroke="#231E5F" stroke-width="6" points="130.1,29.2 129.8,29 129.1,29.1 128.6,29 129.1,29.5 
			130.6,30.7 131.1,30.3 131.2,29 131,28.4 130.5,28.1 130.6,28.3 130.7,29.1 130.6,29.2 		"/>
		<polygon fill="#DFDBED" stroke="#231E5F" stroke-width="6" points="127.5,29.4 125.9,26.7 124.8,26.3 124.5,27.6 124.8,28.5 
			125.6,29.2 127,31 128,32.6 128.5,33.1 129.8,34.3 130.6,34.8 131,34.6 130.9,33.7 130.5,32.8 130.1,32 129.7,31.4 128.9,30.7 
			128,30.1 		"/>
		<polygon fill="#DFDBED" stroke="#231E5F" stroke-width="6" points="129.2,45.4 130.4,45.5 131.7,44.9 132.2,44.8 132.8,45.3 
			133.1,45.2 133.2,44.5 133,43.7 130.3,41.7 129.3,40.3 128.9,40.2 128.6,40.9 128.6,41.6 128.8,42 128.5,44.2 		"/>
		<polygon fill="#DFDBED" stroke="#231E5F" stroke-width="6" points="125.4,166.7 124.7,166.9 124.3,167.6 124,168.5 123.5,168.9 
			122.9,169.2 123.2,170.1 123.5,170.2 124.3,171.1 124.8,171.5 125.3,171.9 125.7,171.9 126.4,171.4 127.2,170.5 127.4,169.1 
			127.5,168.2 127.2,167.2 126.6,166.9 		"/>
		<polygon fill="#DFDBED" stroke="#231E5F" stroke-width="6" points="99.1,35.6 101.1,35.9 101.1,35.8 100.9,35.6 100.7,35.6 
			100.3,35.3 99.6,35.1 98.7,34.8 98.4,34.6 97.7,34.5 97.7,34.8 98.5,35.2 		"/>
		<polygon fill="#DFDBED" stroke="#231E5F" stroke-width="6" points="118,55.7 118.9,54.8 119.3,53.4 119.2,51.9 118.4,50.6 
			117.5,51.8 116.7,51.6 116.2,50.6 116,49.1 116.1,46.2 116,44.5 115,42.1 114.4,42.3 113,43.8 112.9,44.3 112.6,45.1 112.7,46 
			113,46.9 112.1,47.5 111.4,48.8 111.1,50.3 111.4,51.9 112.4,52.6 113.7,52.9 114.7,53.5 114.3,55 		"/>
		<polygon fill="#DFDBED" stroke="#231E5F" stroke-width="6" points="13.3,105.5 14,106 17.7,110.3 18.6,111.9 19.4,114.9 20,116 
			20.7,116.5 21.4,116.7 22,117.2 22.6,120.3 24.8,125.4 25.1,126.9 25.8,134.2 26.6,137.8 28.1,151.2 28.6,151.6 29.9,151.9 
			30.6,152.4 30.3,153.1 30.2,154.1 30.4,155 31,155.4 31.8,155.6 32.2,156.1 33.6,159 34.7,162.8 35.4,166.3 36.2,173.4 37,177.3 
			37.2,179.2 36.8,185.5 36.6,186.5 36.4,186.9 36.3,187.9 36.5,189 36.8,189.5 37.2,189.2 39.2,186.6 39.6,186.4 39.7,186.1 
			39.5,185.5 39,184.7 38.9,184.3 38.7,182.7 38.2,181.3 38,180.7 38.6,179.4 40,178.7 41.7,178.5 43,178.6 44.3,179.2 45.3,180.4 
			46.1,181.9 46.4,183.8 47.1,184.9 48.7,185 51.7,184.6 51.7,185.2 51.6,185.4 51.4,185.8 55,185.6 56.9,185.7 58.3,186.5 
			53.8,187.9 49.3,190.1 47.5,191.4 46.6,191.8 45.3,191.9 44.3,192.6 43.9,193.9 44.2,194.8 45.1,194.3 45.7,195.3 46.1,196 
			46.2,196.8 45.7,197.7 45.3,197.5 44.5,197 43.5,196.6 42.6,196.8 42.3,195.3 41.1,193.7 41.4,192.6 40.5,190.7 39.3,191.8 
			39.1,192.9 40.1,196.2 40.9,199.8 41.7,205.7 42.1,206.9 43.1,207.4 45.2,207.6 46.2,207.5 46.7,207.6 47.4,208 48,208.6 
			48.5,208.8 49.3,208.2 48.4,207.6 48.4,207 51.6,207.7 52.4,207.3 53,206.5 53.5,206 54.1,206 55,206.4 56.7,207.8 58,209.6 
			59.4,210.9 61.3,211.3 60.6,212.2 59.4,212.8 58.4,212.6 58,211.6 57.5,210 56.5,209.6 54.5,210.1 52.4,210.9 51.7,213.1 
			52.1,215.6 53.4,217.9 52.4,217.7 50.7,216.4 49.7,216.1 50.4,217.6 51.8,219.8 52.8,222 53.1,222.4 53.3,223 53.4,224.2 
			53.3,225.1 53,225.8 52.6,226.2 51.2,226.6 50.9,227.4 51.1,228.3 51.4,229.3 51.6,229.7 52,230.1 52.4,230.4 52.8,230.5 
			53,230.7 53.1,231.6 53.2,232 54.3,232.8 55.7,233.4 56.7,234.3 56.3,236 55.3,235 52.7,233.1 52.2,232.3 51.7,232.3 51.5,234.4 
			50.8,236.4 49.6,237.6 48,237.7 47.1,236.5 46.4,234.4 45.5,229.9 45.4,227.6 45.9,220.9 45.5,218.9 44.7,217.5 44.4,216.1 
			45.1,214.3 43.5,215.1 43.2,218.5 44.2,233.1 44.1,236.8 43.4,239.6 43.8,240.6 43.9,241.5 43.4,243.2 42.8,244.9 42.3,246 
			41.8,246.7 42.4,247.2 43,247.2 44.3,246.7 44.6,246.7 44.8,247 45.1,247.1 45.5,246.7 45.4,246.5 45.2,246 45.1,245.4 
			45.1,244.9 46.1,243.9 47.2,243.8 48.3,244.2 49.3,244.9 52.4,248.4 53.8,249.1 55.4,248.9 56.5,248.1 57.5,247 58.8,246.1 
			59.5,246.1 61.5,246.7 62.1,246.5 62.9,245.8 64.8,245.1 65.3,244.3 65.8,244 66.7,244.9 67,245.7 67.2,246.5 67.5,247 
			71.1,247.9 78.6,246.5 80.4,246.8 81.8,247.6 82.4,249.4 82.8,250.9 83.8,252.1 88.5,256 89.7,256.6 91.4,256.9 92.8,256.5 
			95.4,255.2 97,255.1 100.8,254.3 102,254.7 102.8,255.5 104.9,257.1 105.8,257.6 107.6,257.9 109.6,258.8 111.5,259.9 113,261.2 
			114.1,262.5 115.2,264.3 116,266.3 116.7,269.6 117.5,270.5 118.5,271.4 119.3,272.5 119.7,273.9 120.2,277.8 121.3,280.9 
			121.2,282.5 120.9,284.2 120.9,286.2 122.3,288.6 122.5,289.5 122.5,290.4 122.2,292.1 122.2,293 122.5,296.4 122.8,298.3 
			123.4,299.8 124.5,301 125.9,302.1 127.4,303 132.1,304 134.6,303.3 135.5,303.3 137.4,304.4 140.5,305.2 142.3,306.2 
			147.5,306.3 152.3,308.1 153.5,307.8 154.6,307.1 159.1,305.7 169.9,301.6 172.3,300 176.5,296.5 179,295.1 180.7,294.7 
			185.3,295.7 194.2,294 212.3,295.8 215.1,296.8 216.4,297.9 217,299.1 217.4,300.7 218.2,302.5 219.3,303.3 220.7,303.1 
			226.1,300.6 226.4,300.6 227.6,300.7 228.3,300.9 228.7,300.9 230.6,300.8 231.3,300.9 232.2,301.3 234.8,301.6 237.4,300.8 
			238.2,300.8 238.5,300.7 241.2,298.5 241.6,298.3 245.9,297.4 248.8,296.3 249,295.6 249.4,295.1 251,294.1 251.7,293.9 
			260.8,295.7 261.5,295.6 263,294.9 263.5,294.8 266.6,295.4 267.3,295.3 268.7,294.7 271.1,293.3 271.7,293.1 272.6,293.1 
			274.4,293.5 275.4,293.4 277,292.6 278.6,291.5 280.5,289.6 281.6,288.9 284.4,288.4 293.3,284.6 309.7,281.7 312.3,279.6 
			314,277.4 315,276.9 316.6,276.7 320.8,276.9 323.9,276.3 329.2,275.3 344.2,275 347.2,273.7 349.7,270.6 350.2,270.6 353,270.6 
			360.8,270.6 368.7,270.6 376.5,270.6 384.3,270.6 392.1,270.6 399.9,270.5 407.7,270.5 415.5,270.5 423.3,270.5 431.1,270.5 
			438.9,270.5 446.7,270.5 454.5,270.5 462.3,270.5 470.1,270.5 478.3,270.4 476.9,266.5 473.7,262.4 473.4,261.5 475.2,259.4 
			475.9,258.2 476.5,256.4 476.5,254.6 475.2,252.2 474.5,248 473.7,246.1 471.6,242.7 468.8,238.9 468.3,237.6 468.6,236 
			469.5,233.2 469.5,230.7 469.4,216.8 469.4,202.8 469.3,188.8 469.3,174.8 469.2,160.7 469.2,146.6 469.1,132.4 469.1,118.2 
			469,104 469,89.7 468.9,75.4 468.9,61 468.8,46.6 468.8,32.1 468.7,17.6 468.7,3 128.5,3 122.5,3 122.5,3 123.3,4.5 123.8,6.1 
			121.1,5.6 119.6,5.8 118.9,6.8 119.2,8.4 122.2,8.2 123,9.9 122.7,10.4 122.2,11 121.6,11.8 121.4,12.8 121.6,13.9 122.3,14.8 
			124.9,17.2 125.5,18.2 125.7,19.6 125.5,21.8 126,20.7 127.2,21.3 128.3,22.8 128.8,24.1 128.6,24.5 127.8,25.5 127.6,26 
			127.7,27 128.2,27.8 128.8,28.2 129.4,27.8 131.2,24.5 132.2,23.1 133.4,22.5 134.6,22.8 136.1,23.6 137.4,24.8 137.9,26.3 
			136.6,29 136.3,30.6 137.7,31.3 137.7,31.7 138,34.1 138.3,35.1 138.8,35.8 139.4,36.2 139.9,36.4 140.4,36.9 141.2,38.7 
			141.5,40.8 141,42.5 139.8,43.2 138.8,42.7 136.3,40.6 135.1,40.1 133.8,40.4 134.5,41.2 136.9,42.9 137.7,44.2 138.2,45.5 
			138.6,47 138.8,49.4 138.9,50.3 139.1,50.9 139,51.4 138.5,52.3 137.8,52.7 137,52.4 136.2,51.8 134.8,49.8 133.7,49.1 133,49.6 
			133,51.9 132,50.5 131,48.1 129.8,46.7 128.2,47.9 127.4,48.2 126.4,48.2 125.6,48.3 125.5,49.4 125.9,49.8 126.8,50 127.6,50.6 
			128,52.3 127.7,53.1 127.1,53.7 126.8,54.5 127.4,56 128.1,56.7 129,56.9 130,56.8 130.9,56.3 131.3,55.8 132.3,54.2 132.8,53.8 
			133.4,53.9 134.3,54.2 134.7,54.7 133.8,55.7 133.8,56.3 134.6,57.1 135.8,59.6 136.5,60.1 137.5,60.2 138.4,60.4 139.2,60.9 
			140.6,62.5 142.4,63.6 144.4,65.5 144.8,66 145,66.6 145.2,67.6 145.4,68.1 144.5,69.9 144.3,70.9 144.6,71.8 143.9,72.2 
			143.3,71.6 142.8,70.7 142.1,70 141.1,69.9 140,70 137.9,70.6 136.7,71.8 136,73.6 135.9,75.8 136.3,78 137.2,80.2 138.5,81.7 
			143.6,85.6 144.1,86.1 145.3,88 146,88.6 147.1,88.6 145.8,85.7 144.9,84.3 143.9,83.7 143,83.3 142,82.4 141,81.4 140.4,80.5 
			139.9,79.1 139.7,77.5 139.9,76.1 141.1,75.2 141,73.3 141.3,72.5 141.8,72.3 142.2,72.5 142.6,72.9 142.9,73.1 145.4,74.2 
			146,76.3 145.9,79.1 146.2,82.4 147.6,85.4 149.5,87.6 153.7,91.1 154.7,90 155.6,90.1 155.9,90.4 156.4,90.7 156.5,91.1 
			156.3,91.4 156,91.8 155.6,92.2 155.5,93.5 155.3,94.7 154.1,95.4 153.5,95.9 151.4,96.4 150.9,96.8 150.4,97.3 149.2,98.3 
			148.7,98.7 148.5,99.4 148.5,100.3 147.9,101.6 147.7,103 147.6,105 146.8,106.4 145,108 144.4,109 144,110.2 143.7,111.7 
			143.6,113.5 144,114.8 144.7,115.8 144.9,117.2 145.1,118.7 144.9,119.7 143.9,121.2 143.5,122 143.4,122.8 143.1,123.4 
			142.4,123.6 142.2,124 142.5,124.9 143.1,125.7 143.7,126.1 146.4,127.3 147.2,128.4 147.6,129.5 147.5,131 147.2,132.8 
			146.6,132 146,130.7 145.3,129.8 144.5,130 143.7,131.1 143.4,131.7 143.5,132.5 144.6,136.5 145.1,137.5 145.7,138.6 146,139.7 
			145.9,143.6 146.3,144.6 147.9,147 148.5,148.1 148.6,149.8 148.3,151.1 147.6,152.1 145.6,152.7 144.5,153.2 143.4,154 
			142.6,154.8 142.1,155.8 142.3,156.5 142.9,157.2 143.9,157.9 142.8,159 141.9,159.4 141,159 138.8,157.1 136.6,155.8 
			135.6,154.8 135.6,158.1 134.8,161.4 133.5,164.3 128.6,171.5 126.6,173.6 124.4,174.9 124.2,174 123.6,173 122.8,172.2 
			121.4,171.5 120.8,170.7 120.3,169.6 119.8,168.9 118.7,168.2 118.3,168.7 118.4,170.1 118.4,170.3 117.8,170.7 116.9,171.2 
			116.1,171.3 116.5,170.7 116.8,169.9 116.8,169.1 116.5,168.2 114.1,170.3 113.6,171.3 113.6,172.4 113.9,173.6 113.9,174.7 
			113.2,175.6 113.6,176.5 114.1,177.8 114,178.7 113.2,178.6 112.5,177.9 112.1,175.9 111.5,174.9 111.9,174.1 112,173.1 
			111.9,172.2 111.5,171.3 110.9,173.4 109.7,174.9 108.3,175.7 107,175.6 108,174.8 108.9,173.9 111.5,168.7 111.8,167.4 
			111.1,167.1 109.7,169.5 109.5,169.8 109.1,169.9 104,173.8 102.8,174.3 103.5,172.9 104.6,172.4 105.8,172.1 106.5,171.3 
			106.3,170.1 105.1,170.1 103.7,170.7 102.8,171.3 103.5,169.9 105,169.2 108.2,168.2 109.7,166.8 110.6,164.9 112.4,158.2 
			112.8,157.5 113.8,157.3 114.5,157 115.5,156.3 116.9,154.8 117.5,153.2 118.5,148.8 119.4,147.5 119,148.8 119.3,149.4 
			119.8,149.9 120.2,150.5 120.5,151.7 120.6,152.4 120.7,154.9 120.5,156.6 120,158 118.8,158.5 118.8,160.6 119.8,164.7 
			121.4,167.5 123.2,165.9 123.2,165.3 123,164.7 122.8,164.2 122.7,164 122.9,163.6 123.2,163.1 123.5,162.9 123.5,163.4 
			123.9,162.6 124.3,162.2 124.3,161.7 122.9,159.1 122.5,157.9 122.8,156.6 123.8,155.1 124,154.4 124.1,153.5 124.2,152.8 
			124.6,152.4 125.1,152.2 125.6,151.7 126,151 126.5,150.5 128.6,149.4 129.4,148.6 129.8,146.9 130.1,149.1 129.5,150.6 
			128.6,151.9 128.1,153.3 127.6,154.5 126.8,155.3 126.6,156.1 128.1,157.3 132.8,159.4 133.7,159.4 134.4,157.6 134.2,156.1 
			132.7,153 133.7,152.7 134.5,152.1 135.1,151.2 135.6,150 134.5,148 134.7,146.1 135.5,144 136,141.7 136.5,140 137.3,138.1 
			137.4,136.6 135.8,135.9 135.4,134.7 135.3,132.4 134.7,130.9 132.7,132.2 131.4,133.4 130,134.4 126.9,135.9 127.2,135 
			128.4,133.8 128.9,132.8 129.5,131.7 129.4,131.5 129,131.5 126.9,130.3 126.4,129.8 126,128.5 125.9,127.4 126.1,126.4 
			126.4,125.5 126.9,124.8 129.2,129.8 130.8,131.8 132.3,131 131.8,130.3 132.3,129.7 130.1,121.1 129.8,120.5 129.3,119.9 
			128.7,119.5 128.3,118.9 128.1,117.7 128.7,117.6 132.1,121.2 133,120.6 134,119.4 134.5,117.9 134.4,116.9 135.4,116.6 
			138.3,117.3 138.9,117.2 139.1,116.7 139.5,116.2 139.8,115.4 139.7,114.3 139.4,113.7 138.8,113.1 138.2,112.7 137.6,112.6 
			138.5,111.2 138.2,110.2 137.6,109.5 137.3,108.6 136.9,105.5 136.8,104.2 136.2,102 134.6,100.6 131,98.4 131.1,99.3 
			132.3,101.4 132.5,102.1 133.5,106.4 133.8,108.4 133.6,109.7 132.3,109.4 132,108.7 132.2,107.9 132.1,107.2 131,107 
			130.4,107.3 129.7,107.9 123.7,116.7 123.2,118.1 122.3,122.1 121.9,123.3 121.2,124 119.8,124.8 115.3,126.7 111.5,129.2 
			110.7,129.7 106.2,136.3 103.8,142.3 103.2,143.3 101.6,145.5 100.9,146.9 100.7,148.1 102,150.2 104.4,150.3 109,148.1 
			113.2,145.2 115.6,144.1 117.3,144.5 115.4,146.4 113.3,147.8 103.1,152.3 99.7,152.6 97.8,151.2 98,149.8 99.5,146.2 
			100.4,142.9 101.5,141.5 102.7,140.3 103.6,139 105.6,133.9 106.3,132.5 111.1,126.3 111.8,125.7 112.6,125.4 113,125 
			113.4,122.9 114.5,121.5 115.1,119.6 116,117.5 117.3,116.3 116.2,113.7 115.7,112.1 115.6,110.7 116.3,109.2 116.9,109.7 
			117.3,111.3 117.3,113.1 118.4,112.2 118.6,110.5 118.7,108.8 119.4,107.6 119.8,110.9 119.7,113.5 118.6,119.3 117.9,121 
			118,122 119,122.4 119.7,122.3 120.3,121.9 120.9,121.2 121.1,120.3 121.2,118.8 121.6,117.1 122.7,113.8 123.6,112 126.2,108.6 
			126.7,107.6 127.2,105.9 127.7,105.1 128.3,105 130.1,104.9 130.6,104.5 130.2,103.4 127.1,99.3 126.8,98.5 126.6,96.6 
			126.5,95.9 126,95.4 124.9,94.6 124.4,94.1 121.8,89.5 121.5,88.1 121.2,87.6 120.6,86.9 120.2,86 120.2,84.7 120.6,84.2 
			122.1,83.4 122.7,82.9 121.5,80.7 120,80.7 118.3,81.6 116.3,82.2 115.6,82.7 115,83.9 114.8,85.2 115,86.3 117.5,89 118.2,90.3 
			117.2,93 116.4,93.9 115.3,94.1 115.3,93.4 116.5,92.6 116.2,90.8 115.3,89 114.4,87.8 113.7,87.5 113,87.5 112.5,87.2 
			112.3,85.7 112,84.9 111.2,84.6 110.2,84.7 107.6,85.2 107.2,86.4 107.8,90 107.1,90 105.8,89.4 104.8,88.1 105.3,86 103.9,83.6 
			102.2,81.9 100.2,80.8 97.8,80.4 97.8,79.8 98.7,79.5 99.5,79.1 100.1,78.4 100.3,77.3 98.2,78.7 94,82.5 92,83.5 82,82.9 
			80.8,82.2 80.8,81.8 81.3,81.6 81.9,81.4 82.4,81.1 78.1,81.7 77,81.5 74.1,80.4 70.5,81 69,81.7 68,81.2 66.3,79.8 64.2,79.3 
			59.8,79.6 50.7,79 42.4,76.7 41.2,76.1 39.3,73.3 38,72.3 33.2,70.1 31.8,69.8 29.1,70.1 28.1,69.8 26.6,68.4 26,68.1 21.6,66.9 
			19.3,64.8 9.4,59.8 6.5,58.9 3.2,58.6 3,60 3.5,61.1 5.3,63 6.7,64.2 7,64.6 6.8,65.5 5.8,66.9 5.6,67.7 5.6,71.1 5.5,71.5 
			5,72.2 4.9,72.7 4.9,73.1 5.2,73.7 5.3,74.2 4.9,77.2 4.4,78.6 3.4,79.2 3.2,79.9 5.3,84.4 5.3,87.7 5.6,91 6.3,94.3 7.3,97.6 
			8.5,100.7 10.5,104.6 11,105 12.6,105.2 		"/>
		<polygon fill="#DFDBED" stroke="#231E5F" stroke-width="6" points="47.9,229.5 48.7,230.2 50.4,233.1 50.7,232.2 50.8,231.2 
			50.8,229.2 50.5,228.4 49.5,227.4 49.1,226.4 49,226 48.7,225.2 48.3,225.8 47.9,226.4 48.2,227.2 48.3,227.9 48.2,228.7 		"/>
		<polygon fill="#DFDBED" stroke="#231E5F" stroke-width="6" points="115.6,159.1 115.7,158.2 116.5,157.5 116.9,156.4 116.2,156.9 
			115.7,157.2 114.7,157.7 114.2,158.2 113.3,158.2 112.9,158.9 112.7,160.2 112.3,161.8 112.3,162.6 112.9,163.5 113.8,164.3 
			114.2,165.1 114.4,165.7 114.7,166.9 114.9,167.6 115.2,168 116.1,167.1 116.8,165.7 116.8,163.3 116.2,162.3 115.5,161.3 
			115.6,160.2 		"/>
		<polygon fill="#DFDBED" stroke="#231E5F" stroke-width="6" points="96.1,33.6 96.5,33.3 96.3,32.8 95.8,32.6 95.7,32.4 96.1,32.4 
			96.8,32.8 97.2,32.8 97.4,32.4 97.3,32 97.1,31.7 96.8,31.7 96.3,32.1 95.9,32.1 95.1,31.7 95,31.4 94.6,30.9 93.6,30.8 
			93.1,31.1 93.4,31.7 		"/>
		<polygon fill="#DFDBED" stroke="#231E5F" stroke-width="6" points="120.3,47.5 120.4,47.2 120.3,47.1 120,46.8 120.1,46.3 
			120.3,46 118.3,45.9 117.8,46.4 117.4,46.9 117.4,47.1 117.9,47.7 118.2,48 118.4,48.2 118.5,48.7 118.3,49.8 118.5,49.9 
			118.6,49.9 118.8,49.5 119.6,48.7 		"/>
		<polygon fill="#DFDBED" stroke="#231E5F" stroke-width="6" points="108.5,43.1 110.6,43.8 110.9,43.5 111,43 111.1,42.6 
			111.3,42.4 111.6,42.3 112,42.4 112.2,42.3 112.4,42.2 112.7,41.9 113,41.1 112.8,40.4 112.3,40.4 111.9,40.5 111.7,40.7 
			111.7,41.1 111.5,41.3 111.2,40.9 111.3,40.4 111.2,40.2 110,40 109.5,39.5 107.5,40.3 106.8,40.3 106.7,40.7 107,41 107.7,41.1 
			107.9,41.2 108.6,42.2 108.7,42.5 108.4,42.6 		"/>
		<polygon fill="#DFDBED" stroke="#231E5F" stroke-width="6" points="104.8,28.8 104,29.4 103.6,29.9 104.8,30.4 105,30.5 
			105.1,31.9 105.4,32 106.9,31 107.1,30.6 107.1,30.1 107,28.4 106.7,27.9 105.1,28.4 		"/>
		<polygon fill="#DFDBED" stroke="#231E5F" stroke-width="6" points="102.2,4.9 104.9,3.8 105.5,3 102.1,3 102.2,3.5 		"/>
		<polygon fill="#DFDBED" stroke="#231E5F" stroke-width="6" points="98,37.7 96.8,39.1 97,41 97.1,41.4 97.5,44.2 98.2,46.9 
			98.6,47.6 99.2,48.5 99.7,49.1 100.5,49.6 101.4,49.9 102.1,50.1 103.3,49.9 103.6,50.1 104.3,50.6 104.9,51.2 105.3,51.8 
			105.8,52.3 106.6,52.6 107.5,52.4 108.2,52.2 108.8,52.1 109.7,52.6 109.7,51.9 108.6,51.4 108.1,51.1 107.6,50.6 106.6,48.4 
			106.4,48.2 106.6,47.1 107,47.1 107.5,47.3 108.1,46.9 108.8,45.8 108.9,45.3 107.3,44.5 106.1,42.4 104.1,41.5 102.9,40.5 
			101.9,39.2 101.4,38.2 99.8,37.2 		"/>
	</g>
	<g>
		<path fill="#DFDBED" d="M502.6,363.1l-0.5-1.8l-2.1-4.2l-1.1-3.5l-0.8-1.7l-0.8-0.9l-0.9-0.8l-2.5-0.5l-3.5-2.2l-1.2-1.5l-0.6-0.5
			l-4.3-1l-0.6-1.1L483,342l-3.6-3.8l-1.8-4.9l-0.5-2.7l-0.1-0.4c-5.5,0-11,0-16.4,0c-12.8,0-25.6,0-38.4,0.1c-12.4,0-24.8,0-37.2,0
			c-12.2,0-24.4,0.1-36.5,0.1l-2.6,3l-3,1.4l-15,0.2c-2.8,0.5-5.6,1.1-8.4,1.6l-4.2-0.2l-1.6,0.2l-1,0.6l-1.8,2.2l-2.5,2.1
			l-16.4,2.9l-8.8,3.7l-2.8,0.5l-1.1,0.7l-1.9,1.9l-1.6,1.1l-1.7,0.8l-0.9,0.1l-1.8-0.4l-0.9,0l-0.6,0.2l-2.4,1.4l-1.4,0.6l-0.7,0.1
			l-3.1-0.6l-0.5,0.1l-1.5,0.7l-0.7,0.1l-9.1-1.8l-0.6,0.2l-1.6,1.1l-0.4,0.5l-0.2,0.6l-2.8,1.2l-4.3,0.9l-0.4,0.2l-2.7,2.1
			l-0.3,0.1l-0.8,0.1l-2.6,0.8l-2.6-0.3l-0.9-0.4l-0.7-0.1l-2,0.1l-0.3,0l-0.7-0.2l-1.3-0.1l-0.3,0l-5.4,2.5l-1.3,0.2l-1.1-0.8
			l-0.8-1.8l-0.5-1.5l-0.6-1.3l-1.2-1l-2.9-1l-18.1-1.8l-8.9,1.7l-4.5-1l-1.7,0.3l-2.5,1.4l-4.2,3.5l-2.4,1.5l-10.8,4.2l-4.5,1.4
			l-1,0.7l-1.2,0.3l-4.9-1.8l-5.1-0.1l-1.8-1l-3.1-0.8l-2-1l-0.9,0l-2.4,0.7l-4.7-1l-1.5-0.9l-1.4-1.1l-1-1.2l-0.6-1.4l-0.4-1.9
			l-0.3-3.4l0.1-1l0.3-1.7l0.1-0.9l-0.2-0.9l-1.4-2.4l0-2l0.3-1.8l0.1-1.6l-1.1-3l-0.5-3.9l-0.4-1.4l-0.8-1.1l-1-0.8l-0.8-1
			l-0.7-3.3l-0.8-1.9l-1.1-1.8L112,321l-1.5-1.3l-1.9-1.2l-2-0.9l-1.9-0.3l-0.8-0.5l-2.1-1.6l-0.8-0.8l-1.2-0.3l-3.8,0.7l-1,0.8
			l-1.7,2.3l-0.8,0.5h-3.5l-6.4-1.2l-1-0.9l-0.4-0.7l-3.2-4.7l-0.7-0.6l-0.7-0.2l-1.2,0.2l-0.9,0.4l-1.6,1.2l-1,0.3l-1.9-0.1
			l-0.8,0.4l0.4,0.2l0.9,0.9l-0.9,0.5l-5.5,1.2l-0.9,0.1l-1-0.5l-1.1-1.8l-0.7-0.7l-0.8,0.4l-1,0.7l-2.3,0.2l-1.1,0.5l0.5,0.6
			l0.5,0.4l0.6,0.2l0.7,0.1l0.6,0.3l1.2,1.6l0.5,0.5v0.5l-0.8,0.2l-0.4,0.7l-0.1,1l0.1,1.2l-0.8-1l0-1.2l0.1-1.3l-0.4-1.3l-0.8-0.4
			l-2.1,0.2l-1.1-0.7l-1.1-1.3l-1.6-1.4l-1.7-1l-1.6-0.2l0.1-0.6l0.1-0.3l0.2-0.3l-1.1,0.4l0.3,1.9l2.9,6.9l0.8,3.3l0.3,1.9l0.1,2
			l-0.1,2l-0.3,1.9l-0.3,1.1l-0.3,0.5l-1.5,1.6l-0.6,0.3l-0.6,0.4l-0.5,0.9l1.3,1.7l0.6,1.8l0.2,2.1l-0.2,5l-0.4,1.7l-1.4,3.1
			l1.5,0.9l1.2,1.9l0.6,2.4l-0.1,2.7l0.4-0.9l0.4-0.6l0.5-0.9l0.7-0.2l0.9,0.6l0.3-0.3l0.3-0.1l0.3-0.1l0.4-0.1l-0.5,1l-0.7,0.5
			l-0.7,0.3l-0.6,0.5l-0.4,0.8l-1.3,1.4c-0.3,1.6-0.7,3.2-1,4.9l-0.1,1.1l0.6,0.6l1.4,1.2l1.8-0.5l-0.3,1.9l0.2,1.6l0.7,1l1.4,0.2
			v0.6l-1,0.8l-0.3,0.8l-0.4,0.3l-1.1-0.7l-1-0.3l-0.8-1.1l-0.4-2.2l-0.2-2.7l-0.3,0.8l-0.3,2.8l-0.7,1.9l0,3.7l1,1.6l2.2,1.3
			l-0.8,1.1l-0.7,1.4l-1,0.9l0.3-2.6l0.1-0.4l-0.3-0.1l-0.2,0.5l-0.2,0.6l-0.2,0.9c-0.1,0.9-0.2,1.7-0.3,2.6l-0.5,1.1l-1.3,0.4v0.6
			l0.9,0.1l0.9,0.4l0.6,0.6l0.1,2.1l0.1,2.4l0,0.5l-0.2,0.5l-0.3,0.2l-0.3,0.2l-0.2,0.2c-0.1,1.5-0.2,3-0.3,4.4l0.1,0.9l0.1,2
			l0.1,1.3l-0.4,2.1l-0.5,2.1l-1.2,1.9l-0.6,1.6l-0.1,0.8l0.7,0.9c-0.2,2.2-0.4,4.3-0.6,6.5l-0.6,2l0.3,0.4l0.1,0.5l0,1.5l-0.4,0.6
			l-0.5,0.4c-0.1,0.7-0.1,1.5-0.2,2.2l-0.7,1.7l-0.8,1.5l-0.4,1.4l0.1,5.2l0.2,1.5l0.1,1.7l-0.4,3.9l0.1,1.1l0.4,1.1l-0.1,0.9l0,0.8
			l0.6,1l0.7,0.1l0.7-0.4l0.6-0.1l0.5,1l-0.2,1.4l-1.2-0.4l-1.3-0.8l-0.6,0.1l-1.7,10.9l-0.1,2.1l0.4,1.5l1.1,0.7l1.1-0.4l1,0.1
			l0.7,2.2l-2.2-1l-1.1,0l-0.4,1.3l-0.1,1.7l-1.1,5l-0.2,0.4l-0.5,0.8l-0.2,0.5l0,0.5l0.3,0.8l0.1,0.5l-0.4,3.1l0.2,5.3l-1,7.2
			l-0.4,2.7l-0.1,0.6l0,0.7l0.1,1.1l0.7,2.3l0.1,0.5l-0.3,0.9l-0.8,0.5l-0.2,0.7v3.5l-0.2,1.4c-0.6,4.5-1.2,9.1-1.8,13.6l-1,3.5v1.8
			l0.6,1.3l0.6-1l0.6-2l0.6-1.5l1.1-0.3l1.5,0.6l1.4,1l0.8,0.8v0.5h-2.7l-0.5-0.3l-0.1-0.6l0-0.6l0-0.3l-0.9,0.2l-0.5,0.8l-0.3,1.1
			l-0.4,1.2l-0.7,0.9l-1.5,1.5l-0.7,1.1l-0.4,1.2l-0.5,3.9l-0.6,1.8l-0.2,1L28,550.1l-1,2.1l0.5,0.6l1.3-2.3l2-2.6l2.2-2.3l2-1.3
			l-0.7,1.8l-0.1,0.8l0.2,0.4l0.4,0.5l0.4,0.6l0.5,2l2.2,3.1l-0.9,0.4l-1.2-0.2l-1.2-0.6l-0.8-0.7l-0.4-1.3v-1.1l-0.1-0.7l-0.9-0.3
			l-1.4,0.9l-1.4,2l-0.7,1.9l0.8,0.8l-0.3,0.6l-0.3,0.4l-0.4,0.2l-0.7,0l0.3,0.9l0.1,1l0,2.1h-0.4l-0.9-0.9l-0.3-4.5h-0.7l-0.6,0.5
			l-1.2,0.7l-0.6,0.8l-0.4,1l-0.1,0.6l0.1,1.2l-0.1,3.6l-2.3,11.2l-0.4,3.6l-0.1,1.7l-0.3,1.7l-0.7,1.3l-0.8,1.2l-0.7,1.2
			c-1.7,4.1-3.3,8.3-5,12.4l-1.2,0.9l1.1,0.7l0.6,0.8l0.4,1l1,4.5l0.6,1l0.8-0.8l0.6,1.1l0.9,2.5l0.8,1.3l0.8,0.7l0.9,0.5l0.7,0.7
			l0.3,1.4l0.1,2.6l0.8,3.9c-0.2,1.3-0.5,2.6-0.7,3.9l-1.4,3.1l-0.2,1.2l0.1,0.9l0.5,2.4l0.2,2.7l0,1.3l-0.1,1l-0.4,1.3l-0.3,0.6
			l-0.6,0.6l0.4,0.6l0.6,0.6l0.3,0.2l0.6,3l0.2,1.8l-0.1,0.8l1,0.8l0.8,1.8l1.4,8.6l0.4,0.8l0.8,0.5l2.7,3.4l3.6,2.6l0.8,1.8h435.9
			c0-11.9,0-23.8-0.1-35.7c0-12.7,0-25.4-0.1-38.1c0-12.1,0-24.2-0.1-36.2c0-12.3,0-24.7-0.1-37l-0.2-1.1v-0.6l-0.5-1.9l0.9-1.4
			l1.3-1.1l0.7-1.1l0.7-1.9l0.2-2l0.8-2.7l0.4-3.4l0.3-0.9l0.3-0.6l0.2-0.7l0.1-1l-0.4-1.8l-1.7-2.9l0-1.4l0.6-0.7l0.8-0.1l0.8,0
			l0.7-0.3l0.5-0.8l0.2-1l0.1-1l0-1l0.2-0.5l0.4-0.5l0.2-0.6l-0.3-0.8l-1.2-1.2l-1-0.8l-1.3-0.7l-0.3-0.5l-0.5-1.1l-0.1-0.9l0-0.9
			l-0.2-0.8l-0.8-0.3l-1.4,0.3l-1.1,0.5l-1.1,0.3l-1.2-0.4l-0.5-0.6l-0.4-0.8l-0.4-0.7l-0.8-0.2l-0.8,0.3l-0.6,0.6l-0.5,0.7
			l-0.6,0.7l-2.3-1.7l-1-1.1l-0.4-1.6l0.1-0.9l0.3-1.1l0.1-0.9l-0.2-1.1l-0.8-1.7l-0.3-1l0.2-1.9l0.7-1.7l0.5-1.5l-0.6-2.3l0.4-0.6
			l0.6-0.5l0.3-0.5l0.2-1.1l0.5-0.4l0.7-0.2l0.7-0.3l0.8-1l0.8-1.4l0.6-1.6l0.5-3.3l0.7-1.8l1.5-3l1.7-4.3l0.6-1.2l1.1-1.4l3.7-2.4
			l1.1-1l0.9-1l3.2-5.4l1.4-3l0.5-1.6l0.7-4l0.1-1.8l-0.1-0.2l-0.3-0.4l-0.3-0.7l-0.1-1l0.2-0.9l0.5-0.9l6.4-9.9l1.2-3.3l1.1-5.3
			l0.8-1.5l0.6-1.4l0.2-3.6l0.2-1.8l0.8-1.6l2.1-2.5l0.9-2.9l2.9-3.7l0.2-0.8l0.3-1.8l1.1-2.9l0.3-0.6l1.8-2.1l0.8-1.3l0.5-1.6
			L502.6,363.1z"/>
		<polygon fill="#DFDBED" points="122.4,72.7 123.1,74.9 123.6,75.4 124.3,76.1 125.1,76.6 125.8,76.8 126.2,77.2 127.7,79.9 
			129.1,78.9 130.4,78.7 131.4,79.6 131.8,81.7 130.9,86.7 131.2,88 132.3,89.7 132.2,91.2 133,93 134.1,94.6 135,95.3 135.5,96 
			136,96.4 136.8,96.5 137.4,96.1 138.6,94.8 139.3,94.7 140.3,95.5 140.9,97.1 141.3,99.2 141.4,101.1 141.8,101.6 142.6,101.4 
			143.9,100.8 144.2,101 144.2,101.6 144.4,102 144.7,102.1 145,101.8 145.2,101.2 145.5,100.8 146.6,98.7 147,98.4 147.2,97.9 
			146.9,97 146.4,95.6 146,93.5 145.1,92.1 140.3,88.7 139.3,87.6 138.3,86.3 137,85.3 136.4,86.3 136.5,88.3 137.3,90.3 
			136.5,92.4 135.7,93 135.1,91.9 134.6,87.5 134.3,82.5 133.6,78.5 133,76.4 132.1,74.9 130.8,74.3 130.1,74.1 128.7,73.2 
			127.9,73 126,73.6 125.1,73.5 124.3,72.3 127.8,71.6 128.7,70.9 128.9,69.7 129,68.1 129.3,67.4 130.2,69.3 130.6,68 131.3,66.4 
			132.2,65.6 133.3,66.5 134.1,67.6 135.1,68 136,67.8 136.8,66.9 136.9,64.3 133.2,61.2 133.1,59.3 132.9,59 132.8,58.8 
			132.6,58.1 132.1,57.1 131.5,57.4 130.8,58.2 130,58.6 128.4,58.6 127.7,60.6 122.7,70.9 		"/>
		<polygon fill="#DFDBED" points="123.6,39.9 123.5,41.1 124.4,43.8 124.9,44.3 125.6,44.3 126.1,44.2 126.5,43.9 126.6,42.9 
			127,42.3 127.3,41.9 127.1,41.5 126.1,40.3 126,39.7 125.6,39 124.8,38.5 124.1,38.9 		"/>
		<polygon fill="#DFDBED" points="124.8,89.1 124.5,88.5 124.4,86.6 124,86 123.4,86 123.3,86.8 123.5,88.5 123.9,89.7 124.7,91.4 
			125.7,92.8 126.9,92.8 127.4,91.3 127.1,89.1 126.6,86.9 125.7,84.7 125.2,84.3 124.6,84.3 124,84.7 125,85.9 125.7,87.7 
			125.6,89 		"/>
		<polygon fill="#DFDBED" points="127.4,36.6 126.2,36.7 125.8,36.9 126.9,37.9 128,38.4 127.9,37.6 127.7,36.9 		"/>
		<polygon fill="#DFDBED" points="133.2,129.3 133.6,129.8 134.4,129.6 135.3,129.8 136.6,131.8 137.9,132 138.6,131.1 139.1,130.6 
			138.6,130.4 138.3,130 138.2,129.3 138.1,128.8 137.8,128.4 137.9,127.7 137.2,127 137.7,126.8 138,126.4 138.5,125.7 
			137.9,125.1 137.5,123.8 137.2,120.9 136.9,120.3 136.3,119.6 135.6,119.2 135,119 134.4,119.2 134.3,119.9 134.4,120.9 
			134.1,121.8 133.1,123.2 133,123.8 133.1,125.1 133.4,126.1 133.8,126.8 133.7,127.8 		"/>
		<polygon fill="#DFDBED" points="140.8,149.3 139.9,149.7 139.5,150.6 139.4,151.8 139.7,153 140.9,152 142.9,149.9 145.5,148.8 
			145.9,148.8 144.7,147.9 143.6,147.3 142.6,146.5 141.8,145 141.6,144.1 141.6,142.3 141.4,141.4 141,140.6 140.4,140.2 
			140.2,139.6 140.6,138.3 139.6,138.8 138.5,139.9 137.6,141.3 137.3,142.3 136.8,149.1 136.6,149.6 136.2,150.3 136,151.2 
			136.2,152.1 136.8,152.9 137.2,153.4 137.7,153.4 138.1,153 138.3,152.3 138.5,151.4 138.5,149.6 138.8,149.1 139.4,148.7 
			140.6,148.1 140.1,147.5 141.1,147.3 141.5,148 141.4,148.9 		"/>
		<polygon fill="#DFDBED" points="112.5,24.3 112.3,24.3 112.6,24.8 112.8,25.1 112.7,25.2 112.9,25.3 113.3,25.5 113.5,25.4 
			113.3,25.1 113.4,25.1 113.8,25.5 114.5,25.6 113.7,24.6 113.5,24.8 112.9,24.3 113.4,24 114,24 114.7,24.2 114.1,23.6 
			113.2,23.4 112.5,23.7 112.4,24 112.6,24.1 112.6,24.3 		"/>
		<polygon fill="#DFDBED" points="106,35.7 106,36.6 106.2,37.3 107,38.5 107.8,39.3 108.2,38.6 108.4,37.2 108.5,36 108.8,35.5 
			109.5,35.9 110.5,36.9 110.9,37.7 111.1,38.8 111.6,39.7 112.6,40 114.4,39.9 115.2,39.6 116,38.9 113,33.8 113.3,33 113.3,32.5 
			113.1,32 113,31 113.3,30.1 113.9,29.9 114.5,30.2 114.7,31 114.9,32 115.7,34.5 117.2,37.1 117.8,37.9 118.4,38.2 119.2,38 
			119.4,37.5 119.4,36.8 119.7,36.3 122.3,34.4 122.7,34 123,33.1 116.2,29.1 113.9,28.8 112.6,28.8 111.9,29.1 108.9,32.8 
			108.3,33.1 107.8,33.5 106.3,35.1 		"/>
		<polygon fill="#DFDBED" points="130.1,29.2 129.8,29 129.1,29.1 128.6,29 129.1,29.5 130.6,30.7 131.1,30.3 131.2,29 131,28.4 
			130.5,28.1 130.6,28.3 130.7,29.1 130.6,29.2 		"/>
		<polygon fill="#DFDBED" points="127.5,29.4 125.9,26.7 124.8,26.3 124.5,27.6 124.8,28.5 125.6,29.2 127,31 128,32.6 128.5,33.1 
			129.8,34.3 130.6,34.8 131,34.6 130.9,33.7 130.5,32.8 130.1,32 129.7,31.4 128.9,30.7 128,30.1 		"/>
		<polygon fill="#DFDBED" points="129.2,45.4 130.4,45.5 131.7,44.9 132.2,44.8 132.8,45.3 133.1,45.2 133.2,44.5 133,43.7 
			130.3,41.7 129.3,40.3 128.9,40.2 128.6,40.9 128.6,41.6 128.8,42 128.5,44.2 		"/>
		<polygon fill="#DFDBED" points="125.4,166.7 124.7,166.9 124.3,167.6 124,168.5 123.5,168.9 122.9,169.2 123.2,170.1 123.5,170.2 
			124.3,171.1 124.8,171.5 125.3,171.9 125.7,171.9 126.4,171.4 127.2,170.5 127.4,169.1 127.5,168.2 127.2,167.2 126.6,166.9 		"/>
		<polygon fill="#DFDBED" points="99.1,35.6 101.1,35.9 101.1,35.8 100.9,35.6 100.7,35.6 100.3,35.3 99.6,35.1 98.7,34.8 
			98.4,34.6 97.7,34.5 97.7,34.8 98.5,35.2 		"/>
		<polygon fill="#DFDBED" points="118,55.7 118.9,54.8 119.3,53.4 119.2,51.9 118.4,50.6 117.5,51.8 116.7,51.6 116.2,50.6 
			116,49.1 116.1,46.2 116,44.5 115,42.1 114.4,42.3 113,43.8 112.9,44.3 112.6,45.1 112.7,46 113,46.9 112.1,47.5 111.4,48.8 
			111.1,50.3 111.4,51.9 112.4,52.6 113.7,52.9 114.7,53.5 114.3,55 		"/>
		<polygon fill="#DFDBED" points="13.3,105.5 14,106 17.7,110.3 18.6,111.9 19.4,114.9 20,116 20.7,116.5 21.4,116.7 22,117.2 
			22.6,120.3 24.8,125.4 25.1,126.9 25.8,134.2 26.6,137.8 28.1,151.2 28.6,151.6 29.9,151.9 30.6,152.4 30.3,153.1 30.2,154.1 
			30.4,155 31,155.4 31.8,155.6 32.2,156.1 33.6,159 34.7,162.8 35.4,166.3 36.2,173.4 37,177.3 37.2,179.2 36.8,185.5 36.6,186.5 
			36.4,186.9 36.3,187.9 36.5,189 36.8,189.5 37.2,189.2 39.2,186.6 39.6,186.4 39.7,186.1 39.5,185.5 39,184.7 38.9,184.3 
			38.7,182.7 38.2,181.3 38,180.7 38.6,179.4 40,178.7 41.7,178.5 43,178.6 44.3,179.2 45.3,180.4 46.1,181.9 46.4,183.8 
			47.1,184.9 48.7,185 51.7,184.6 51.7,185.2 51.6,185.4 51.4,185.8 55,185.6 56.9,185.7 58.3,186.5 53.8,187.9 49.3,190.1 
			47.5,191.4 46.6,191.8 45.3,191.9 44.3,192.6 43.9,193.9 44.2,194.8 45.1,194.3 45.7,195.3 46.1,196 46.2,196.8 45.7,197.7 
			45.3,197.5 44.5,197 43.5,196.6 42.6,196.8 42.3,195.3 41.1,193.7 41.4,192.6 40.5,190.7 39.3,191.8 39.1,192.9 40.1,196.2 
			40.9,199.8 41.7,205.7 42.1,206.9 43.1,207.4 45.2,207.6 46.2,207.5 46.7,207.6 47.4,208 48,208.6 48.5,208.8 49.3,208.2 
			48.4,207.6 48.4,207 51.6,207.7 52.4,207.3 53,206.5 53.5,206 54.1,206 55,206.4 56.7,207.8 58,209.6 59.4,210.9 61.3,211.3 
			60.6,212.2 59.4,212.8 58.4,212.6 58,211.6 57.5,210 56.5,209.6 54.5,210.1 52.4,210.9 51.7,213.1 52.1,215.6 53.4,217.9 
			52.4,217.7 50.7,216.4 49.7,216.1 50.4,217.6 51.8,219.8 52.8,222 53.1,222.4 53.3,223 53.4,224.2 53.3,225.1 53,225.8 
			52.6,226.2 51.2,226.6 50.9,227.4 51.1,228.3 51.4,229.3 51.6,229.7 52,230.1 52.4,230.4 52.8,230.5 53,230.7 53.1,231.6 
			53.2,232 54.3,232.8 55.7,233.4 56.7,234.3 56.3,236 55.3,235 52.7,233.1 52.2,232.3 51.7,232.3 51.5,234.4 50.8,236.4 
			49.6,237.6 48,237.7 47.1,236.5 46.4,234.4 45.5,229.9 45.4,227.6 45.9,220.9 45.5,218.9 44.7,217.5 44.4,216.1 45.1,214.3 
			43.5,215.1 43.2,218.5 44.2,233.1 44.1,236.8 43.4,239.6 43.8,240.6 43.9,241.5 43.4,243.2 42.8,244.9 42.3,246 41.8,246.7 
			42.4,247.2 43,247.2 44.3,246.7 44.6,246.7 44.8,247 45.1,247.1 45.5,246.7 45.4,246.5 45.2,246 45.1,245.4 45.1,244.9 
			46.1,243.9 47.2,243.8 48.3,244.2 49.3,244.9 52.4,248.4 53.8,249.1 55.4,248.9 56.5,248.1 57.5,247 58.8,246.1 59.5,246.1 
			61.5,246.7 62.1,246.5 62.9,245.8 64.8,245.1 65.3,244.3 65.8,244 66.7,244.9 67,245.7 67.2,246.5 67.5,247 71.1,247.9 
			78.6,246.5 80.4,246.8 81.8,247.6 82.4,249.4 82.8,250.9 83.8,252.1 88.5,256 89.7,256.6 91.4,256.9 92.8,256.5 95.4,255.2 
			97,255.1 100.8,254.3 102,254.7 102.8,255.5 104.9,257.1 105.8,257.6 107.6,257.9 109.6,258.8 111.5,259.9 113,261.2 114.1,262.5 
			115.2,264.3 116,266.3 116.7,269.6 117.5,270.5 118.5,271.4 119.3,272.5 119.7,273.9 120.2,277.8 121.3,280.9 121.2,282.5 
			120.9,284.2 120.9,286.2 122.3,288.6 122.5,289.5 122.5,290.4 122.2,292.1 122.2,293 122.5,296.4 122.8,298.3 123.4,299.8 
			124.5,301 125.9,302.1 127.4,303 132.1,304 134.6,303.3 135.5,303.3 137.4,304.4 140.5,305.2 142.3,306.2 147.5,306.3 
			152.3,308.1 153.5,307.8 154.6,307.1 159.1,305.7 169.9,301.6 172.3,300 176.5,296.5 179,295.1 180.7,294.7 185.3,295.7 
			194.2,294 212.3,295.8 215.1,296.8 216.4,297.9 217,299.1 217.4,300.7 218.2,302.5 219.3,303.3 220.7,303.1 226.1,300.6 
			226.4,300.6 227.6,300.7 228.3,300.9 228.7,300.9 230.6,300.8 231.3,300.9 232.2,301.3 234.8,301.6 237.4,300.8 238.2,300.8 
			238.5,300.7 241.2,298.5 241.6,298.3 245.9,297.4 248.8,296.3 249,295.6 249.4,295.1 251,294.1 251.7,293.9 260.8,295.7 
			261.5,295.6 263,294.9 263.5,294.8 266.6,295.4 267.3,295.3 268.7,294.7 271.1,293.3 271.7,293.1 272.6,293.1 274.4,293.5 
			275.4,293.4 277,292.6 278.6,291.5 280.5,289.6 281.6,288.9 284.4,288.4 293.3,284.6 309.7,281.7 312.3,279.6 314,277.4 
			315,276.9 316.6,276.7 320.8,276.9 323.9,276.3 329.2,275.3 344.2,275 347.2,273.7 349.7,270.6 350.2,270.6 353,270.6 
			360.8,270.6 368.7,270.6 376.5,270.6 384.3,270.6 392.1,270.6 399.9,270.5 407.7,270.5 415.5,270.5 423.3,270.5 431.1,270.5 
			438.9,270.5 446.7,270.5 454.5,270.5 462.3,270.5 470.1,270.5 478.3,270.4 476.9,266.5 473.7,262.4 473.4,261.5 475.2,259.4 
			475.9,258.2 476.5,256.4 476.5,254.6 475.2,252.2 474.5,248 473.7,246.1 471.6,242.7 468.8,238.9 468.3,237.6 468.6,236 
			469.5,233.2 469.5,230.7 469.4,216.8 469.4,202.8 469.3,188.8 469.3,174.8 469.2,160.7 469.2,146.6 469.1,132.4 469.1,118.2 
			469,104 469,89.7 468.9,75.4 468.9,61 468.8,46.6 468.8,32.1 468.7,17.6 468.7,3 128.5,3 122.5,3 122.5,3 123.3,4.5 123.8,6.1 
			121.1,5.6 119.6,5.8 118.9,6.8 119.2,8.4 122.2,8.2 123,9.9 122.7,10.4 122.2,11 121.6,11.8 121.4,12.8 121.6,13.9 122.3,14.8 
			124.9,17.2 125.5,18.2 125.7,19.6 125.5,21.8 126,20.7 127.2,21.3 128.3,22.8 128.8,24.1 128.6,24.5 127.8,25.5 127.6,26 
			127.7,27 128.2,27.8 128.8,28.2 129.4,27.8 131.2,24.5 132.2,23.1 133.4,22.5 134.6,22.8 136.1,23.6 137.4,24.8 137.9,26.3 
			136.6,29 136.3,30.6 137.7,31.3 137.7,31.7 138,34.1 138.3,35.1 138.8,35.8 139.4,36.2 139.9,36.4 140.4,36.9 141.2,38.7 
			141.5,40.8 141,42.5 139.8,43.2 138.8,42.7 136.3,40.6 135.1,40.1 133.8,40.4 134.5,41.2 136.9,42.9 137.7,44.2 138.2,45.5 
			138.6,47 138.8,49.4 138.9,50.3 139.1,50.9 139,51.4 138.5,52.3 137.8,52.7 137,52.4 136.2,51.8 134.8,49.8 133.7,49.1 133,49.6 
			133,51.9 132,50.5 131,48.1 129.8,46.7 128.2,47.9 127.4,48.2 126.4,48.2 125.6,48.3 125.5,49.4 125.9,49.8 126.8,50 127.6,50.6 
			128,52.3 127.7,53.1 127.1,53.7 126.8,54.5 127.4,56 128.1,56.7 129,56.9 130,56.8 130.9,56.3 131.3,55.8 132.3,54.2 132.8,53.8 
			133.4,53.9 134.3,54.2 134.7,54.7 133.8,55.7 133.8,56.3 134.6,57.1 135.8,59.6 136.5,60.1 137.5,60.2 138.4,60.4 139.2,60.9 
			140.6,62.5 142.4,63.6 144.4,65.5 144.8,66 145,66.6 145.2,67.6 145.4,68.1 144.5,69.9 144.3,70.9 144.6,71.8 143.9,72.2 
			143.3,71.6 142.8,70.7 142.1,70 141.1,69.9 140,70 137.9,70.6 136.7,71.8 136,73.6 135.9,75.8 136.3,78 137.2,80.2 138.5,81.7 
			143.6,85.6 144.1,86.1 145.3,88 146,88.6 147.1,88.6 145.8,85.7 144.9,84.3 143.9,83.7 143,83.3 142,82.4 141,81.4 140.4,80.5 
			139.9,79.1 139.7,77.5 139.9,76.1 141.1,75.2 141,73.3 141.3,72.5 141.8,72.3 142.2,72.5 142.6,72.9 142.9,73.1 145.4,74.2 
			146,76.3 145.9,79.1 146.2,82.4 147.6,85.4 149.5,87.6 153.7,91.1 154.7,90 155.6,90.1 155.9,90.4 156.4,90.7 156.5,91.1 
			156.3,91.4 156,91.8 155.6,92.2 155.5,93.5 155.3,94.7 154.1,95.4 153.5,95.9 151.4,96.4 150.9,96.8 150.4,97.3 149.2,98.3 
			148.7,98.7 148.5,99.4 148.5,100.3 147.9,101.6 147.7,103 147.6,105 146.8,106.4 145,108 144.4,109 144,110.2 143.7,111.7 
			143.6,113.5 144,114.8 144.7,115.8 144.9,117.2 145.1,118.7 144.9,119.7 143.9,121.2 143.5,122 143.4,122.8 143.1,123.4 
			142.4,123.6 142.2,124 142.5,124.9 143.1,125.7 143.7,126.1 146.4,127.3 147.2,128.4 147.6,129.5 147.5,131 147.2,132.8 
			146.6,132 146,130.7 145.3,129.8 144.5,130 143.7,131.1 143.4,131.7 143.5,132.5 144.6,136.5 145.1,137.5 145.7,138.6 146,139.7 
			145.9,143.6 146.3,144.6 147.9,147 148.5,148.1 148.6,149.8 148.3,151.1 147.6,152.1 145.6,152.7 144.5,153.2 143.4,154 
			142.6,154.8 142.1,155.8 142.3,156.5 142.9,157.2 143.9,157.9 142.8,159 141.9,159.4 141,159 138.8,157.1 136.6,155.8 
			135.6,154.8 135.6,158.1 134.8,161.4 133.5,164.3 128.6,171.5 126.6,173.6 124.4,174.9 124.2,174 123.6,173 122.8,172.2 
			121.4,171.5 120.8,170.7 120.3,169.6 119.8,168.9 118.7,168.2 118.3,168.7 118.4,170.1 118.4,170.3 117.8,170.7 116.9,171.2 
			116.1,171.3 116.5,170.7 116.8,169.9 116.8,169.1 116.5,168.2 114.1,170.3 113.6,171.3 113.6,172.4 113.9,173.6 113.9,174.7 
			113.2,175.6 113.6,176.5 114.1,177.8 114,178.7 113.2,178.6 112.5,177.9 112.1,175.9 111.5,174.9 111.9,174.1 112,173.1 
			111.9,172.2 111.5,171.3 110.9,173.4 109.7,174.9 108.3,175.7 107,175.6 108,174.8 108.9,173.9 111.5,168.7 111.8,167.4 
			111.1,167.1 109.7,169.5 109.5,169.8 109.1,169.9 104,173.8 102.8,174.3 103.5,172.9 104.6,172.4 105.8,172.1 106.5,171.3 
			106.3,170.1 105.1,170.1 103.7,170.7 102.8,171.3 103.5,169.9 105,169.2 108.2,168.2 109.7,166.8 110.6,164.9 112.4,158.2 
			112.8,157.5 113.8,157.3 114.5,157 115.5,156.3 116.9,154.8 117.5,153.2 118.5,148.8 119.4,147.5 119,148.8 119.3,149.4 
			119.8,149.9 120.2,150.5 120.5,151.7 120.6,152.4 120.7,154.9 120.5,156.6 120,158 118.8,158.5 118.8,160.6 119.8,164.7 
			121.4,167.5 123.2,165.9 123.2,165.3 123,164.7 122.8,164.2 122.7,164 122.9,163.6 123.2,163.1 123.5,162.9 123.5,163.4 
			123.9,162.6 124.3,162.2 124.3,161.7 122.9,159.1 122.5,157.9 122.8,156.6 123.8,155.1 124,154.4 124.1,153.5 124.2,152.8 
			124.6,152.4 125.1,152.2 125.6,151.7 126,151 126.5,150.5 128.6,149.4 129.4,148.6 129.8,146.9 130.1,149.1 129.5,150.6 
			128.6,151.9 128.1,153.3 127.6,154.5 126.8,155.3 126.6,156.1 128.1,157.3 132.8,159.4 133.7,159.4 134.4,157.6 134.2,156.1 
			132.7,153 133.7,152.7 134.5,152.1 135.1,151.2 135.6,150 134.5,148 134.7,146.1 135.5,144 136,141.7 136.5,140 137.3,138.1 
			137.4,136.6 135.8,135.9 135.4,134.7 135.3,132.4 134.7,130.9 132.7,132.2 131.4,133.4 130,134.4 126.9,135.9 127.2,135 
			128.4,133.8 128.9,132.8 129.5,131.7 129.4,131.5 129,131.5 126.9,130.3 126.4,129.8 126,128.5 125.9,127.4 126.1,126.4 
			126.4,125.5 126.9,124.8 129.2,129.8 130.8,131.8 132.3,131 131.8,130.3 132.3,129.7 130.1,121.1 129.8,120.5 129.3,119.9 
			128.7,119.5 128.3,118.9 128.1,117.7 128.7,117.6 132.1,121.2 133,120.6 134,119.4 134.5,117.9 134.4,116.9 135.4,116.6 
			138.3,117.3 138.9,117.2 139.1,116.7 139.5,116.2 139.8,115.4 139.7,114.3 139.4,113.7 138.8,113.1 138.2,112.7 137.6,112.6 
			138.5,111.2 138.2,110.2 137.6,109.5 137.3,108.6 136.9,105.5 136.8,104.2 136.2,102 134.6,100.6 131,98.4 131.1,99.3 
			132.3,101.4 132.5,102.1 133.5,106.4 133.8,108.4 133.6,109.7 132.3,109.4 132,108.7 132.2,107.9 132.1,107.2 131,107 
			130.4,107.3 129.7,107.9 123.7,116.7 123.2,118.1 122.3,122.1 121.9,123.3 121.2,124 119.8,124.8 115.3,126.7 111.5,129.2 
			110.7,129.7 106.2,136.3 103.8,142.3 103.2,143.3 101.6,145.5 100.9,146.9 100.7,148.1 102,150.2 104.4,150.3 109,148.1 
			113.2,145.2 115.6,144.1 117.3,144.5 115.4,146.4 113.3,147.8 103.1,152.3 99.7,152.6 97.8,151.2 98,149.8 99.5,146.2 
			100.4,142.9 101.5,141.5 102.7,140.3 103.6,139 105.6,133.9 106.3,132.5 111.1,126.3 111.8,125.7 112.6,125.4 113,125 
			113.4,122.9 114.5,121.5 115.1,119.6 116,117.5 117.3,116.3 116.2,113.7 115.7,112.1 115.6,110.7 116.3,109.2 116.9,109.7 
			117.3,111.3 117.3,113.1 118.4,112.2 118.6,110.5 118.7,108.8 119.4,107.6 119.8,110.9 119.7,113.5 118.6,119.3 117.9,121 
			118,122 119,122.4 119.7,122.3 120.3,121.9 120.9,121.2 121.1,120.3 121.2,118.8 121.6,117.1 122.7,113.8 123.6,112 126.2,108.6 
			126.7,107.6 127.2,105.9 127.7,105.1 128.3,105 130.1,104.9 130.6,104.5 130.2,103.4 127.1,99.3 126.8,98.5 126.6,96.6 
			126.5,95.9 126,95.4 124.9,94.6 124.4,94.1 121.8,89.5 121.5,88.1 121.2,87.6 120.6,86.9 120.2,86 120.2,84.7 120.6,84.2 
			122.1,83.4 122.7,82.9 121.5,80.7 120,80.7 118.3,81.6 116.3,82.2 115.6,82.7 115,83.9 114.8,85.2 115,86.3 117.5,89 118.2,90.3 
			117.2,93 116.4,93.9 115.3,94.1 115.3,93.4 116.5,92.6 116.2,90.8 115.3,89 114.4,87.8 113.7,87.5 113,87.5 112.5,87.2 
			112.3,85.7 112,84.9 111.2,84.6 110.2,84.7 107.6,85.2 107.2,86.4 107.8,90 107.1,90 105.8,89.4 104.8,88.1 105.3,86 103.9,83.6 
			102.2,81.9 100.2,80.8 97.8,80.4 97.8,79.8 98.7,79.5 99.5,79.1 100.1,78.4 100.3,77.3 98.2,78.7 94,82.5 92,83.5 82,82.9 
			80.8,82.2 80.8,81.8 81.3,81.6 81.9,81.4 82.4,81.1 78.1,81.7 77,81.5 74.1,80.4 70.5,81 69,81.7 68,81.2 66.3,79.8 64.2,79.3 
			59.8,79.6 50.7,79 42.4,76.7 41.2,76.1 39.3,73.3 38,72.3 33.2,70.1 31.8,69.8 29.1,70.1 28.1,69.8 26.6,68.4 26,68.1 21.6,66.9 
			19.3,64.8 9.4,59.8 6.5,58.9 3.2,58.6 3,60 3.5,61.1 5.3,63 6.7,64.2 7,64.6 6.8,65.5 5.8,66.9 5.6,67.7 5.6,71.1 5.5,71.5 
			5,72.2 4.9,72.7 4.9,73.1 5.2,73.7 5.3,74.2 4.9,77.2 4.4,78.6 3.4,79.2 3.2,79.9 5.3,84.4 5.3,87.7 5.6,91 6.3,94.3 7.3,97.6 
			8.5,100.7 10.5,104.6 11,105 12.6,105.2 		"/>
		<polygon fill="#DFDBED" points="47.9,229.5 48.7,230.2 50.4,233.1 50.7,232.2 50.8,231.2 50.8,229.2 50.5,228.4 49.5,227.4 
			49.1,226.4 49,226 48.7,225.2 48.3,225.8 47.9,226.4 48.2,227.2 48.3,227.9 48.2,228.7 		"/>
		<polygon fill="#DFDBED" points="115.6,159.1 115.7,158.2 116.5,157.5 116.9,156.4 116.2,156.9 115.7,157.2 114.7,157.7 
			114.2,158.2 113.3,158.2 112.9,158.9 112.7,160.2 112.3,161.8 112.3,162.6 112.9,163.5 113.8,164.3 114.2,165.1 114.4,165.7 
			114.7,166.9 114.9,167.6 115.2,168 116.1,167.1 116.8,165.7 116.8,163.3 116.2,162.3 115.5,161.3 115.6,160.2 		"/>
		<polygon fill="#DFDBED" points="96.1,33.6 96.5,33.3 96.3,32.8 95.8,32.6 95.7,32.4 96.1,32.4 96.8,32.8 97.2,32.8 97.4,32.4 
			97.3,32 97.1,31.7 96.8,31.7 96.3,32.1 95.9,32.1 95.1,31.7 95,31.4 94.6,30.9 93.6,30.8 93.1,31.1 93.4,31.7 		"/>
		<polygon fill="#DFDBED" points="120.3,47.5 120.4,47.2 120.3,47.1 120,46.8 120.1,46.3 120.3,46 118.3,45.9 117.8,46.4 
			117.4,46.9 117.4,47.1 117.9,47.7 118.2,48 118.4,48.2 118.5,48.7 118.3,49.8 118.5,49.9 118.6,49.9 118.8,49.5 119.6,48.7 		"/>
		<polygon fill="#DFDBED" points="108.5,43.1 110.6,43.8 110.9,43.5 111,43 111.1,42.6 111.3,42.4 111.6,42.3 112,42.4 112.2,42.3 
			112.4,42.2 112.7,41.9 113,41.1 112.8,40.4 112.3,40.4 111.9,40.5 111.7,40.7 111.7,41.1 111.5,41.3 111.2,40.9 111.3,40.4 
			111.2,40.2 110,40 109.5,39.5 107.5,40.3 106.8,40.3 106.7,40.7 107,41 107.7,41.1 107.9,41.2 108.6,42.2 108.7,42.5 108.4,42.6 
					"/>
		<polygon fill="#DFDBED" points="104.8,28.8 104,29.4 103.6,29.9 104.8,30.4 105,30.5 105.1,31.9 105.4,32 106.9,31 107.1,30.6 
			107.1,30.1 107,28.4 106.7,27.9 105.1,28.4 		"/>
		<polygon fill="#DFDBED" points="102.2,4.9 104.9,3.8 105.5,3 102.1,3 102.2,3.5 		"/>
		<polygon fill="#DFDBED" points="98,37.7 96.8,39.1 97,41 97.1,41.4 97.5,44.2 98.2,46.9 98.6,47.6 99.2,48.5 99.7,49.1 
			100.5,49.6 101.4,49.9 102.1,50.1 103.3,49.9 103.6,50.1 104.3,50.6 104.9,51.2 105.3,51.8 105.8,52.3 106.6,52.6 107.5,52.4 
			108.2,52.2 108.8,52.1 109.7,52.6 109.7,51.9 108.6,51.4 108.1,51.1 107.6,50.6 106.6,48.4 106.4,48.2 106.6,47.1 107,47.1 
			107.5,47.3 108.1,46.9 108.8,45.8 108.9,45.3 107.3,44.5 106.1,42.4 104.1,41.5 102.9,40.5 101.9,39.2 101.4,38.2 99.8,37.2 		"/>
	</g>
</g>
</svg>
